<?xml version="1.0" encoding="utf-8"?>
<!-- Generator: Adobe Illustrator 22.1.0, SVG Export Plug-In . SVG Version: 6.00 Build 0)  -->
<svg version="1.0" id="Layer_1" xmlns="http://www.w3.org/2000/svg" xmlns:xlink="http://www.w3.org/1999/xlink" x="0px" y="0px"
	 viewBox="0 0 300 62" style="enable-background:new 0 0 300 62;" xml:space="preserve">
<style type="text/css">
	.st0{fill:#FFFFFF;}
</style>
<g>
	<path class="st0" d="M32.5,41.6C23.8,54.4,12.1,59.2,7.9,56.4c-1.6-1.1-1.6-4.8-0.4-8.4c1.4,1.3,3.8,3.2,5.9,2.8
		c5.8-1.2,11.1-6.2,14-13.4c2-5.3,1.8-7.5-4.5-12c-1.7-1.3-3.8-1.1-5.1-0.8C10.3,26.5,0,41.5,0,50.2C0,55,1.8,57,5,59.1
		c10,6.6,23.9-2,29.3-10.4C37.5,43.6,33.3,40.4,32.5,41.6z M12,40.3c4.9-7,9.3-10.3,10.1-9.8c0.7,0.5-1.1,5-5.1,9.8
		c-3,3.6-6.5,6.6-7.7,5.9C8.6,45.8,9.9,43.2,12,40.3z"/>
	<path class="st0" d="M170.5,22.8c2,1.3,4.9,0.4,6.6-2.1c1.6-2.5,1.3-5.6-0.7-6.9c-2-1.2-5-0.3-6.6,2.2
		C168.2,18.4,168.5,21.5,170.5,22.8z"/>
	<path class="st0" d="M297,41.6c-8.7,12.8-20.3,17.6-24.6,14.8c-1.6-1.1-1.6-4.8-0.4-8.4c1.4,1.3,3.8,3.2,5.9,2.8
		c5.8-1.2,11.1-6.2,14-13.4c2-5.3,1.8-7.5-4.5-12c-1.7-1.3-3.8-1.1-5.1-0.8c-6.1,1.7-14,11.9-16.8,20.3
		c-10.2,13.3-17.8,13.6-20,11.7c-1.6-1.5,1.6-8.4,5-13.1c0.9-1.1,4.3-6,7.9-10.7c3.3,0,7.5-0.2,8.8-0.2c5.4,0,0.4-5.4-4.6-5.6
		c1.9-2.6,3.4-4.7,3.9-5.5c0.9-1.6-3.7-6.8-5.6-4.7c-0.2,0.3-3.8,4.9-7.4,9.8c-5.6-0.1-5.5,0.1-8.2,0.1c-2,0-2.1,5.6,3.9,5.6
		c-1.5,2-2.8,3.8-3.6,4.9c-1.4,2.1-2.9,4.1-4.1,6.1c-4.3,6.1-12.7,15.5-14.8,14.1c-2.4-1.6,1-7.8,3.9-12.2c2.5-3.9,5.1-7.2,5.8-8.2
		c0.7-1.1-1.6-3.5-3.8-4.3c-0.1-2.2-2.5-3.2-4.1-4.3c-2.6-2-4.6-2.5-7.5-1c-3.5,1.8-8.2,5.9-11.5,10.9c-1.2,1.8-2.2,3.5-3.1,5.1
		c-7.2,10.2-15.3,15.2-16.2,14.4c-0.8-0.7,0.2-2.9,1.4-5.4c2.9-5.9,10.1-15.9,14.1-21.5c2.2-3-4.8-6.5-6.3-4.6
		c-5.7,6.1-15.1,15.7-23.4,23.7c3.4-5.6,7.6-12.9,9.7-17c2-4-3.1-8.9-4.7-6.6c-1.1,1.7-6.7,11-11.5,19c-4.7,5.9-12,13.1-14,11.4
		c-1.6-1.4,1.5-8.3,4.8-13c1.7-2.4,5.3-7,6.8-9.6c0.9-1.6-3-7.3-4.8-5.4c-0.3,0.5-3.9,4.3-7,8.8c-1.4,2-2.8,3.9-3.9,5.9
		c-7.2,10.2-15.3,15.2-16.1,14.4c-0.8-0.7,0.2-2.9,1.4-5.4c2.8-5.9,10.2-15.8,14-21.5c2.2-3.1-4.7-6.2-6.1-4.8
		c-6.1,6.5-16.3,16.1-25,24c4.2-7.2,8.7-14.7,9.8-16.4c0.7-1.3,0.6-2.8-2.3-4.8c-1.1-0.7-2.6-0.2-4.3,1.3
		c-4.3,3.8-13.8,12.9-20.5,19.3c3.3-5.5,7.5-12.5,9.5-16.6c2-4-3.2-8.9-4.8-6.6c-1,1.5-5.8,9.5-10.2,16.9
		c-4.2,6.1-12.6,15.7-14.8,14.1c-3.3-2.3,4.5-13.5,6.5-16.5c3.1-4.7,6.3-8.8,6.7-9.3c1.1-1.5-4-5.9-6.2-4.3L76.4,45.2
		c-8.2,10.2-12.3,12.2-13,11.2c-0.9-1.2,2.5-7.5,6-12.5c0,0,6.6-9.1,8.8-12.1c1.2-1.9-3.3-7-5.7-4.8c-1.6,1.5-3.5,3.9-7.9,10.5
		c-1.3,1.9-2.4,3.6-3.3,5.4c-4.3,6.1-13.7,16.9-16.6,13.6c-2.5-3,4.3-12.7,6.3-15.7c0.1-0.2,1.1-1.4,2.3-2.9
		c10.3-11.8,20.1-25.7,21.2-28c1.1-2,1.4-4.7-0.2-6.9c-1.8-2.6-3.9-3-4.8-2C64,6.5,44.3,37.9,40.6,45c-1.7,3.4-1.5,7.6-0.2,10.8
		c0.4,1.2,1.1,2.5,2.2,3.6c3.6,3.7,9.8,2.5,16.1-4c0.4,1.4,1.2,2.6,2.3,3.7c4.9,4.7,10.4,1.5,15.2-3.4c0.7,1.8,1.7,3.4,3.5,4.7
		c2.3,1.7,5.9,1.7,10.1-1c1,0.9,2.4,1.7,3.6,1.9c0.7,0.2,1.3,0.2,1.9-0.2c5.5-4.3,12.5-11.1,19.9-18.5c-2.5,4.8-5.1,9.8-5.9,11.9
		c-1,2.6,0.8,4.3,2.1,5.2c1.2,0.8,2.3,0.7,3.2-0.1c3.8-3.3,11.6-10.1,18.8-17c-0.4,0.7-0.8,1.6-1.2,2.3c-1.7,3.2-3.4,8.3-2.5,11.2
		c2.1,6.8,11,8.1,20-1.5c0.8,1.8,2.1,3.6,4.2,5.5c2.1,1.9,5.7,1.9,9.8-0.7c1.6,1.5,4.4,2.5,5.3,1.8c3.8-3.1,11.8-10.5,18.8-17.5
		c-0.2,0.4-0.5,0.8-0.7,1.2c-1.7,3.2-3.4,8.3-2.5,11.2c2,6.6,10.6,8.1,19.4-0.8c0.5,1.3,1.3,2.4,2.4,3.6c5.4,5.4,10.7,1.8,15.4-3.6
		c0.1,2,0.7,3.9,2.5,5.2c3.2,2.3,9.1,1.4,15.4-5.8c0.8,1.7,2.1,3.5,4.1,5.4c3,2.8,13.3,1.9,21.2-5.9c0.8,2.2,2.3,3.6,4.4,4.9
		c10,6.6,23.9-2,29.3-10.4C302.1,43.6,297.8,40.4,297,41.6z M276.6,40.3c4.9-7,9.3-10.3,10.1-9.8c0.7,0.5-1.1,5-5.1,9.8
		c-3,3.6-6.5,6.6-7.7,5.9C273.1,45.8,274.4,43.2,276.6,40.3z M222.6,43.2l-1.5,2.1c-8.2,10.2-12.3,12.2-13,11.2
		c-0.9-1.2,2.6-7.5,6.1-12.5c5.2-7.6,11.4-12.7,12.8-11.6C228.1,33.7,224.8,39.8,222.6,43.2z"/>
	<path class="st0" d="M34.4,36.1l9.2-1.4c1.9,0.1-1-5.6-3.2-5.4c-3.1,0.2-6.2,0.7-9.2,1.4C29.5,31.1,32.4,36.6,34.4,36.1z"/>
</g>
</svg>
