<?xml version="1.0" encoding="utf-8"?>
<!-- Generator: Adobe Illustrator 22.1.0, SVG Export Plug-In . SVG Version: 6.00 Build 0)  -->
<svg version="1.0" id="Layer_1" xmlns="http://www.w3.org/2000/svg" xmlns:xlink="http://www.w3.org/1999/xlink" x="0px" y="0px"
	 viewBox="0 0 160 144" style="enable-background:new 0 0 160 144;" xml:space="preserve">
<style type="text/css">
	.st0{fill:#518BC9;}
	.st1{fill:#FFFFFF;}
</style>
<g>
	<g>
		<g>
			<path class="st0" d="M58.4,87h50.2v-81H58.4V87z"/>
			<path class="st0" d="M52.8,91.4h60.3v-91H52.8V91.4z M111.8,90.2H54V1.6h57.8V90.2z"/>
		</g>
		<path class="st1" d="M62.5,68.4c2.2,7.6,10,11.9,17.3,12.6c12.2,0.9,29.5-8.5,24.4-23.3C102,51.6,96.1,47,91.5,42.9
			c-4.8-4.4-10.8-10-10.7-17.2c0.1-7.3,8.4-8.7,13.3-5.8c2.2,1.2,10.1-0.4,6-2.7c-8.6-4.9-28.5-3.7-27.8,10.2
			c0.4,6.4,5.7,11.8,10,15.9c4.7,4.4,10.1,8.5,13,14.4c3.1,6,0.2,12.3-4.7,16.1c-6.2,4.9-13.4,4.2-18.1-2.3
			c-2.3-3.3-2.8-7.7-1.4-11.6c0.7-2,5-6.5,5.2-6.4c2.3,1.1,6.2,8.9,2.5,10.1c-1.6,0.6-1.5,2.1,0,2.8c2,0.7,4.1,0.7,6,0
			c4.8-1.7,4.3-7.4,2.3-11.2c-3-5.7-10.2-6.8-15.6-4.8C64.3,52.9,60.4,60.8,62.5,68.4z"/>
		<path class="st1" d="M71.9,17.3c4.9,0,4.9-7.6,0-7.6S66.9,17.3,71.9,17.3z"/>
	</g>
	<g>
		<g>
			<g>
				<path class="st1" d="M154.8,101.5c-0.3-0.2-0.5-0.4-0.7-0.5c-0.4-0.1-0.6-0.1-1-0.1c-0.4,0-0.6,0-1,0.1
					c-0.2,0.1-0.5,0.3-0.7,0.5c-0.2,0.3-0.4,0.5-0.5,0.7c-0.2,0.3-0.2,0.6-0.2,1c0,0.4,0.1,0.6,0.2,1c0.1,0.2,0.3,0.5,0.5,0.7
					c0.1,0.2,0.5,0.4,0.7,0.5c0.4,0.1,0.6,0.1,1,0.1c0.4,0,0.7-0.1,1-0.1c0.3-0.1,0.5-0.3,0.7-0.5c0.2-0.1,0.4-0.5,0.5-0.7
					c0.3-0.3,0.3-0.6,0.3-1c0-0.4-0.1-0.6-0.3-1C155.1,102,155,101.8,154.8,101.5z M155,104.1c-0.1,0.3-0.4,0.4-0.5,0.6
					c-0.1,0.1-0.4,0.3-0.6,0.4c-0.2,0.1-0.6,0.1-0.9,0.1c-0.3,0-0.5-0.1-0.9-0.1c-0.2,0-0.4-0.2-0.6-0.4c-0.1-0.1-0.2-0.4-0.4-0.6
					c-0.3-0.6-0.3-1.1,0-1.7c0-0.3,0.2-0.4,0.4-0.6c0.1-0.1,0.4-0.3,0.6-0.4c0.3-0.1,0.6-0.1,0.9-0.1c0.4,0,0.6,0,0.9,0.1
					c0.3,0,0.4,0.1,0.6,0.4c0.3,0.1,0.4,0.4,0.5,0.6C155.3,103,155.3,103.5,155,104.1z"/>
				<path class="st1" d="M152.4,103.3h0.5l0.6,0.9h0.5l-0.6-1c0.1,0,0.3-0.1,0.4-0.3c0.1-0.1,0.1-0.2,0.1-0.4c0-0.1-0.1-0.4-0.2-0.5
					c-0.1-0.1-0.3-0.2-0.5-0.2h-0.9l-0.3,2.3h0.4V103.3z M152.6,102h0.5c0.1,0,0.2,0,0.4,0.1c0.1,0.1,0.1,0.3,0.1,0.4
					c0,0.4-0.1,0.5-0.5,0.5l-0.5-0.1V102z"/>
			</g>
			<g>
				<path class="st1" d="M14.2,112.7c0.1,0,0.2-0.1,0.2-0.5l-0.1-0.7c0.9,0.4,1.6,0.6,2.5,0.6c2.1,0,3.3-1.1,3.3-2.8
					c0-1.4-0.9-2.3-2.6-2.6c-1.1-0.1-2-0.1-2.6-0.6c-0.2-0.3-0.4-0.5-0.4-0.9c0-0.9,0.9-1.5,2.1-1.5c1,0,2.1,0.5,2.8,1.2v0.7
					c0,0.1,0,0.2,0.1,0.2c0.1,0,0.1-0.1,0.1-0.2v-0.4c0-1,0.1-1.8,0.2-2.7c0-0.1,0-0.1-0.1-0.1c-0.1,0-0.1,0.2-0.2,0.6l-0.1,0.5
					c-0.7-0.4-1.5-0.5-2.3-0.5c-1.8,0-3.1,1.1-3.1,2.8c0,0.6,0.2,1.2,0.7,1.7c0.6,0.5,1.4,0.7,2.1,0.7c1.8,0.3,2.7,0.5,2.7,1.6
					c0,0.9-0.7,1.4-2,1.4c-1.2,0-2.5-0.5-3.2-1.5l-0.1-0.9c0-0.1,0-0.2-0.1-0.2c-0.1,0-0.1,0.1-0.1,0.2c0,0,0.1,0.6,0.1,1.7
					c0,0.6,0,1.2-0.1,1.8C14,112.7,14,112.7,14.2,112.7z"/>
				<path class="st1" d="M27.1,111c0.9,0.9,2.1,1.4,3.4,1.4c0.1,0,0.4,0,0.5,0c2.5-0.3,4.4-2.3,4.3-4.8c0-1.2-0.4-2.3-1.2-3.2
					c-1-0.9-2.1-1.2-3.3-1.2c-1.4-0.1-2.6,0.4-3.6,1.4c-1,1-1.4,2.2-1.4,3.4C25.8,109,26.2,110.1,27.1,111z M30.5,103.4
					c1.7,0,2.9,1.6,2.9,4.3c0,2.7-1.2,4.3-3.1,4.3c-1.7,0-2.9-1.6-2.9-4.3C27.4,105,28.8,103.4,30.5,103.4z"/>
				<path class="st1" d="M44,103.3c-0.7,0-1.7,0.1-2.5,0.1c-0.7,0-1.2-0.1-1.5-0.1c-0.1,0-0.2-0.1-0.2,0.1c0,0.3,0.4,0.3,1.2,0.4
					c0,0.7,0,1.5,0.4,2.5v3.1c0,0.9,0,1.7-0.1,2.5c-0.9,0.1-1.2,0.2-1.2,0.4c0,0.1,0.1,0.1,0.3,0.1c0.1,0,0.7-0.1,1.7-0.1
					c1,0,1.6,0.1,1.7,0.1c0.1,0,0.3,0,0.3-0.1c0-0.2-0.5-0.2-1.2-0.4c-0.1-0.7-0.1-1.6-0.1-2.5v-3.1c0-1,0.1-1.7,0.1-2.5
					c0.2-0.1,0.6-0.1,1-0.1c1.2,0,2.3,1,2.3,2.3c0,1.2-0.9,1.7-2.5,1.7h-0.6c-0.1,0-0.2,0-0.2,0.1c0,0.1,0.1,0.1,0.1,0.3l1.7,2.5
					c0.7,1.1,1.1,1.7,2.1,1.7c0.5,0,1-0.3,1.2-0.7c0-0.1,0-0.1-0.1-0.1c-0.1,0.1-0.4,0.1-0.5,0.1c-0.4,0-0.7-0.4-1.2-1.1l-1.7-2.3
					c1.8-0.3,3-1.4,3-2.6C47.4,104,46.3,103.3,44,103.3z"/>
				<path class="st1" d="M54.3,104.5c-1,1-1.4,2.2-1.4,3.4c0,1.1,0.4,2.2,1.2,3.1c1,0.9,2.1,1.4,3.4,1.4c0.1,0,0.4,0,0.5,0
					c2.5-0.3,4.4-2.3,4.3-4.8c0-1.2-0.4-2.3-1.2-3.2c-1-0.9-2.1-1.2-3.3-1.2C56.5,103,55.2,103.5,54.3,104.5z M60.7,107.7
					c0,2.7-1.2,4.3-3.1,4.3c-1.8,0-3-1.6-3-4.3c0-2.7,1.2-4.3,3.1-4.3C59.4,103.4,60.7,105,60.7,107.7z"/>
				<path class="st1" d="M71.6,103.3c-0.9,0-2,0.1-2.8,0.1c-0.9,0-1.5-0.1-1.6-0.1c-0.1,0-0.2-0.1-0.2,0.1c0,0.3,0.5,0.3,1.2,0.4
					v5.4c0,1,0,1.7,0,2.5c-0.9,0.1-1.2,0.2-1.2,0.4c0,0.1,0.1,0.1,0.2,0.1c0.1,0,0.7-0.1,1.7-0.1c1.4,0,2,0.1,2.1,0.1
					c0.1,0,0.3,0.1,0.3-0.1c0-0.2-0.5-0.4-1.5-0.4c-0.1-0.7-0.1-1.6-0.1-2.5v-1.1c0.4,0.1,0.9,0.1,1.2,0.1c2.3,0,3.7-1.2,3.7-2.7
					C74.6,104.1,73.4,103.3,71.6,103.3z M70.9,107.8c-0.2,0-0.6,0-1.2,0v-1.6c0-1,0-1.7,0.1-2.5c0.4-0.1,0.7-0.1,1.1-0.1
					c0.1,0,0.1,0,0.3,0c1.1,0,2.1,1.1,2,2.2C73.1,107.1,72.3,107.8,70.9,107.8z"/>
				<path class="st1" d="M87.7,105.2c0.1,0,0.1-0.1,0.1-0.2v-1c0-0.7,0-1.2,0-1.4c0-0.1-0.1-0.1-0.1-0.1s-0.1,0-0.1,0.1l-0.1,0.4
					c-1,0.2-2.1,0.2-3.2,0.2h-1.1c-1,0-2.1,0-3.2-0.2l-0.1-0.4c0,0,0-0.1-0.1-0.1c-0.1,0-0.1-0.1-0.1,0.1c0,0.2,0.1,0.6,0.1,1.4
					c0,0.5,0,0.9,0,1c0,0.1,0.1,0.2,0.1,0.2s0.1,0,0.1-0.2l0.1-0.7c1-0.4,2-0.6,3-0.6c0.1,0.7,0.1,1.6,0.1,2.5v3.1
					c0,1,0,1.7-0.1,2.5c-0.9,0.1-1.2,0.2-1.2,0.4c0,0,0,0.1,0.2,0.1c0.3,0,0.9-0.1,1.8-0.1c1,0,1.6,0.1,1.7,0.1c0.1,0,0.3,0,0.3-0.1
					c0-0.2-0.5-0.2-1.2-0.4c-0.1-0.7-0.1-1.6-0.1-2.5v-3.1c0-0.9,0-1.7,0.1-2.5c1,0,2,0.2,2.8,0.6l0.1,0.7
					C87.6,105.1,87.6,105.2,87.7,105.2z"/>
				<path class="st1" d="M94.9,112.1c1,0,1.6,0.1,1.7,0.1c0.1,0,0.2,0.1,0.2-0.1c0-0.2-0.4-0.2-1.2-0.4c-0.1-0.7-0.1-1.6-0.1-2.5
					v-3.1c0-1,0-1.7,0.1-2.5c0.9-0.1,1.2-0.4,1.2-0.4s-0.1-0.1-0.2-0.1c-0.5,0.1-1.1,0.1-1.7,0.1c-0.5,0-1.1,0-1.7-0.1
					c-0.1,0-0.2-0.1-0.2,0.1c0,0.3,0.5,0.3,1.2,0.4c0,0.7,0,1.5,0.1,2.5v3.1c0,0.9,0,1.7-0.1,2.5c-0.9,0.1-1.2,0.4-1.2,0.4
					s0.1,0.1,0.2,0.1C93.3,112.2,93.9,112.1,94.9,112.1z"/>
				<path class="st1" d="M110.5,103.5h-0.1c-0.2,0.1-0.5,0-0.7,0l-2.3,5.3l-3.1-5.3c-0.1,0-0.4,0-0.5,0h-0.3c-0.5,0-0.9-0.1-1.2-0.1
					c-0.1,0-0.2,0-0.2,0.1c0,0.1,0.4,0.1,0.7,0.3c0.4,0.1,0.6,0.4,0.7,0.7l0.3,0.4l-0.4,3.8c-0.1,1-0.2,2-0.5,3
					c-0.9,0.1-1.2,0.2-1.2,0.4c0,0,0,0.1,0.3,0.1c0.2,0,0.7-0.1,1.5-0.1c0.9,0,1.5,0.1,1.6,0.1c0.1,0,0.2,0,0.2-0.1
					c0-0.2-0.4-0.2-1.4-0.4c-0.1-0.9-0.1-1.6-0.1-2.5v-1.2l0.1-2.8l2.7,4.8c0.1,0.1,0.1,0.2,0.3,0.2c0.1,0,0.1-0.1,0.2-0.4l0.4-0.7
					c0.4-0.7,1-2.1,2-4.2l0.2,4.7c0.1,0.7,0.1,1.5,0.1,2.2c-0.9,0.1-1.2,0.2-1.2,0.4c0,0,0.1,0.1,0.3,0.1c0.1,0,0.7-0.1,1.7-0.1
					c1,0,1.6,0.1,1.7,0.1c0.1,0,0.3,0.1,0.3-0.1c0-0.2-0.4-0.2-1.2-0.4c-0.1-0.6-0.3-1.4-0.3-2l-0.2-5.9c0.9-0.1,1.2-0.2,1.2-0.4
					c0,0-0.1-0.1-0.2-0.1C111.3,103.4,111,103.5,110.5,103.5z"/>
				<path class="st1" d="M119.6,103.4c-0.5,0-1.1,0-1.7-0.1c-0.1,0-0.3-0.1-0.3,0.1c0,0.3,0.5,0.3,1.2,0.4c0.1,0.7,0.1,1.5,0.1,2.5
					v3.1c0,0.9,0,1.7-0.1,2.5c-0.9,0.1-1.2,0.4-1.2,0.4s0.1,0.1,0.3,0.1c0.1,0,0.7-0.1,1.7-0.1c1,0,1.6,0.1,1.7,0.1
					c0.1,0,0.3,0.1,0.3-0.1c0-0.2-0.4-0.2-1.2-0.4c-0.1-0.7-0.1-1.6-0.1-2.5v-3.1c0-1,0-1.7,0.1-2.5c0.9-0.1,1.2-0.4,1.2-0.4
					s-0.1-0.1-0.3-0.1C120.8,103.4,120.2,103.4,119.6,103.4z"/>
				<path class="st1" d="M130.4,103.1c-1.8,0-3.1,1.1-3.1,2.8c0,0.6,0.2,1.2,0.7,1.7c0.6,0.5,1.4,0.7,2.1,0.7
					c1.8,0.3,2.7,0.5,2.7,1.6c0,0.9-0.7,1.4-2,1.4c-1.2,0-2.5-0.5-3.2-1.5l-0.1-0.9c0-0.1,0-0.2-0.1-0.2c-0.1,0-0.1,0.1-0.1,0.2
					c0,0,0.1,0.6,0.1,1.7c0,0.6,0,1.2-0.1,1.8c0,0.1,0,0.1,0.1,0.1c0.1,0,0.3-0.1,0.3-0.5l-0.3-0.7c0.7,0.4,1.6,0.6,2.5,0.6
					c2.1,0,3.3-1.1,3.3-2.8c0-1.4-0.9-2.3-2.6-2.6c-1.1-0.1-2-0.1-2.6-0.6c-0.2-0.3-0.4-0.5-0.4-0.9c0-0.9,0.9-1.5,2.1-1.5
					c1,0,2.1,0.5,2.8,1.2l0.1,0.7c0,0.1,0,0.2,0.1,0.2c0.1,0,0.1-0.1,0.1-0.2v-0.4c0-1,0.1-1.8,0.3-2.7c0-0.1,0-0.1-0.1-0.1
					c-0.1,0-0.1,0.2-0.2,0.6l-0.1,0.5C132,103.3,131.3,103.1,130.4,103.1z"/>
				<path class="st1" d="M146.5,102.6c0-0.1-0.1-0.1-0.1-0.1c-0.1,0-0.1,0-0.1,0.1l-0.1,0.4c-1,0.2-2.1,0.2-3.2,0.2h-1
					c-1,0-2.1,0-3.2-0.2l-0.1-0.4c0,0,0-0.1-0.1-0.1c-0.1,0-0.1-0.1-0.1,0.1c0,0.2,0.1,0.6,0.1,1.4c0,0.5,0,0.9,0,1
					c0,0.1,0,0.2,0.1,0.2c0,0,0.1,0,0.1-0.2l0.1-0.7c1-0.4,2-0.6,3-0.6c0.1,0.7,0.1,1.6,0.1,2.5v3.1c0,1,0,1.7-0.1,2.5
					c-0.9,0.1-1.2,0.2-1.2,0.4c0,0,0.1,0.1,0.2,0.1c0.6-0.1,1.2-0.1,1.8-0.1c1,0,1.6,0.1,1.7,0.1c0.1,0,0.2,0,0.2-0.1
					c0-0.2-0.4-0.2-1.2-0.4c-0.1-0.7-0.1-1.6-0.1-2.5v-3.1c0-0.9,0-1.7,0.1-2.5c1,0,2,0.2,2.7,0.6l0.1,0.7c0,0.1,0,0.2,0.1,0.2
					c0.1,0,0.1-0.1,0.1-0.2V102.6z"/>
			</g>
		</g>
		<g>
			<path class="st1" d="M4.1,118.5c0.1,0,0.1-0.1,0.1-0.2c0-0.1-0.1-0.2-0.2-0.2c0,0-0.1,0-0.2,0c-0.3,0-0.9,0.1-1.7,0.1
				c-0.8,0-1.4,0-1.7-0.1c-0.1,0-0.2,0-0.2,0c-0.1,0-0.2,0.1-0.2,0.2c0,0.1,0.1,0.2,0.2,0.2c0.3,0.1,0.8,0.1,1.2,0.2
				c0.1,0.9,0.1,2.7,0.1,3.9c0,1.2,0,3-0.1,3.9c-0.2,0-0.9,0.1-1.2,0.2c-0.1,0-0.1,0.1-0.1,0.2c0,0.1,0.1,0.2,0.2,0.2
				c0,0,0.1,0,0.2,0c0.3,0,0.9-0.1,1.7-0.1c0.8,0,1.4,0,1.7,0.1c0.1,0,0.1,0,0.2,0c0.1,0,0.2-0.1,0.2-0.2c0-0.1-0.1-0.2-0.1-0.2l0,0
				c-0.3-0.1-0.9-0.1-1.2-0.2c-0.1-1-0.1-2.7-0.1-3.9c0-1.2,0-3,0.1-3.9C3.3,118.6,3.8,118.5,4.1,118.5z"/>
			<path class="st1" d="M18.4,118.1c0,0-0.1,0-0.1,0c-0.2,0-0.7,0.1-1.4,0.1c-0.7,0-1.3,0-1.6-0.1c-0.1,0-0.2,0-0.2,0
				c-0.1,0-0.2,0.1-0.2,0.2c0,0.1,0.1,0.2,0.2,0.2c0.3,0.1,1,0.1,1.3,0.2c0.1,0.9,0.3,2.5,0.3,4.1v1.8l-5.4-6.3l0,0l0,0
				c-0.1,0-0.2,0-0.3,0c-0.2,0-0.5,0-0.7,0c-0.3,0-0.5,0-0.7,0c-0.1,0-0.3,0-0.4,0c-0.1,0-0.3,0.1-0.3,0.2c0,0.2,0.2,0.2,0.4,0.3
				c0.4,0.1,0.8,0.5,1.3,1c0,3.8-0.1,5.4-0.3,6.9c-0.2,0-0.7,0.1-1,0.2c-0.1,0-0.1,0.1-0.1,0.2c0,0.1,0.1,0.2,0.2,0.2
				c0,0,0.1,0,0.1,0c0.2,0,0.8-0.1,1.4-0.1c0.8,0,1.4,0.1,1.7,0.1c0.1,0,0.1,0,0.1,0c0.1,0,0.2-0.1,0.2-0.2c0-0.1-0.1-0.2-0.2-0.2
				c-0.2-0.1-0.6-0.1-1.3-0.2c-0.2-1.4-0.3-2.9-0.3-6.3l3.9,4.5c0.7,0.8,1.1,1.3,1.4,1.7c0.7,0.8,0.7,0.8,0.8,0.8
				c0.1,0,0.2-0.1,0.2-0.2c0,0,0-0.1,0-0.2c0-0.5-0.1-2-0.1-4.1c0-1.5,0.1-3.2,0.3-4.1c0.5,0,0.9-0.1,1-0.2c0.1,0,0.1-0.1,0.1-0.2
				C18.7,118.2,18.6,118.1,18.4,118.1z"/>
			<path class="st1" d="M31.5,117.5c0-0.1-0.1-0.3-0.2-0.3c-0.1,0-0.2,0.1-0.2,0.2c0,0.1-0.1,0.3-0.1,0.4c0,0,0,0,0,0
				c-1,0.2-3.2,0.2-3.7,0.2c-0.6,0-2.7,0-3.7-0.2c0,0,0,0,0,0c0-0.1,0-0.3-0.1-0.4c0-0.1-0.1-0.2-0.2-0.2c-0.2,0-0.2,0.1-0.2,0.3
				c0,0.1,0,0.3,0,0.5c0,0.3,0.1,0.6,0.1,0.8c0,0.3,0,0.7-0.1,0.9c0,0.1,0,0.2,0,0.3c0,0.2,0.1,0.3,0.2,0.3c0.1,0,0.1,0,0.2-0.2
				c0.1-0.2,0.1-0.6,0.2-1c0.6-0.4,1.6-0.6,2.8-0.6c0.1,0.9,0.1,2.7,0.1,3.9c0,1.3,0,3-0.1,3.9c-0.2,0-0.9,0.1-1.2,0.2
				c-0.1,0-0.2,0.1-0.2,0.2c0,0.1,0.1,0.2,0.2,0.2c0,0,0.1,0,0.2,0c0.3,0,0.9-0.1,1.7-0.1c0.8,0,1.4,0,1.7,0.1c0.1,0,0.2,0,0.2,0
				c0.1,0,0.2-0.1,0.2-0.2c0-0.1-0.1-0.2-0.1-0.2c-0.3-0.1-0.9-0.1-1.2-0.2c-0.1-0.9-0.1-2.7-0.1-3.9c0-1.3,0-3,0.1-3.9
				c1.2,0,2.2,0.2,2.8,0.6c0,0.4,0.1,0.8,0.2,1v0c0,0.1,0.1,0.2,0.2,0.2c0.1,0,0.2-0.1,0.2-0.3c0,0,0-0.1,0-0.3
				c0-0.3-0.1-0.7-0.1-0.9c0-0.2,0-0.5,0.1-0.8C31.5,117.8,31.5,117.6,31.5,117.5z"/>
			<path class="st1" d="M43.8,125.1c0-0.2-0.1-0.3-0.2-0.3c-0.1,0-0.1,0.1-0.2,0.2c-0.1,0.2-0.1,0.6-0.2,0.9
				c-0.7,0.3-1.9,0.5-3.7,0.6c-0.2,0-0.3,0-0.5,0c-0.1-0.9-0.1-2.6-0.1-3.8h0.6c0.9,0,2.6,0.1,3.2,0.3l0,0c0,0.3,0.1,0.7,0.2,0.9
				c0,0.1,0.1,0.1,0.2,0.1c0.1,0,0.2-0.1,0.2-0.2c0-0.1,0-0.2,0-0.4c0-0.3-0.1-0.6-0.1-1c0-0.4,0-0.8,0.1-1c0-0.1,0-0.2,0-0.3
				c0-0.2-0.1-0.2-0.2-0.2c-0.1,0-0.1,0-0.2,0.2l0,0.2c0,0.2-0.1,0.4-0.1,0.5c-0.7,0.3-2.4,0.5-3.2,0.5H39c0-1.2,0-2.8,0.1-3.7
				c0.2,0,0.3,0,0.5,0c1,0,2.8,0.2,3.6,0.6c0,0.2,0,0.6,0.1,0.9c0,0.1,0.1,0.2,0.2,0.2c0.1,0,0.2-0.1,0.2-0.3c0-0.1,0-0.3,0-0.5
				c0-0.2,0-0.5,0-0.7c0-0.2,0-0.5,0.1-0.7c0-0.2,0-0.3,0-0.4c0-0.2-0.1-0.3-0.2-0.3c-0.1,0-0.2,0.1-0.2,0.1c0,0.1-0.1,0.2-0.1,0.5
				c-0.9,0.1-1.8,0.1-3.6,0.1c-0.7,0-1.3,0-1.8,0l-0.4,0c-0.5,0-0.9,0-1,0c-0.1,0-0.2,0.1-0.2,0.2c0,0.1,0.1,0.2,0.1,0.2
				c0.3,0.1,0.9,0.2,1.2,0.2c0.1,0.9,0.1,2.7,0.1,3.9c0,1.2,0,3-0.1,3.9c-0.3,0-0.9,0.1-1.2,0.2c-0.1,0-0.1,0.1-0.1,0.2
				c0,0.1,0.1,0.2,0.2,0.2c0,0,0.1,0,0.2,0c0.2,0,0.5,0,0.8,0c0.6,0,1.3,0,2.2,0c2,0,2.9,0,3.7,0.2c0,0.1,0,0.2,0.1,0.4
				c0,0.1,0.1,0.2,0.2,0.2c0.2,0,0.2-0.1,0.2-0.3c0-0.1,0-0.2,0-0.4c0-0.2-0.1-0.6-0.1-0.8c0-0.3,0-0.6,0.1-0.8
				C43.8,125.3,43.8,125.2,43.8,125.1z"/>
			<path class="st1" d="M57.2,126.3c-0.1,0-0.1,0-0.2,0c-0.1,0-0.2,0.1-0.4,0.1c-0.4,0-0.7-0.4-1.1-1l-1.8-2.6
				c1.9-0.3,2.9-1.2,2.9-2.6c0-2-2.4-2.2-3.4-2.2c-0.4,0-0.9,0-1.4,0c-0.4,0-0.7,0-1,0c-0.3,0-0.8,0-1.3-0.1c-0.3,0-0.6,0-0.7,0
				c-0.1,0-0.2,0.1-0.2,0.2c0,0.1,0.1,0.2,0.1,0.2c0.2,0.1,0.8,0.1,1.2,0.2c0.1,0.9,0.1,2.7,0.1,3.9c0,1.2,0,3-0.1,3.9
				c-0.3,0-0.9,0.1-1.2,0.2c-0.1,0-0.1,0.1-0.1,0.2c0,0.1,0.1,0.2,0.2,0.2c0,0,0.1,0,0.2,0c0.3,0,0.9-0.1,1.7-0.1
				c0.8,0,1.4,0,1.7,0.1c0.1,0,0.2,0,0.2,0c0.1,0,0.2-0.1,0.2-0.2c0-0.1-0.1-0.2-0.2-0.2c-0.3-0.1-0.9-0.1-1.2-0.2
				c-0.1-1-0.1-2.8-0.1-3.9c0-1.1,0-3,0.1-3.9c0,0,0.1,0,0.1,0c0.2,0,0.5-0.1,0.8-0.1c1.2,0,2.5,0.9,2.5,2.4c0,1.1-0.7,1.6-2.3,1.6
				c-0.2,0-0.4,0-0.6,0c-0.1,0-0.2,0-0.2,0c-0.2,0-0.3,0.1-0.3,0.2c0,0.1,0.1,0.2,0.2,0.3l2.2,3.1c0.4,0.6,0.9,1.2,1.7,1.2
				c0.8,0,1.6-0.5,1.6-0.8C57.4,126.4,57.4,126.3,57.2,126.3z"/>
			<path class="st1" d="M71.4,118.1c0,0-0.1,0-0.1,0c-0.2,0-0.7,0.1-1.4,0.1c-0.7,0-1.3,0-1.6-0.1c-0.1,0-0.2,0-0.2,0
				c-0.1,0-0.2,0.1-0.2,0.2c0,0.1,0.1,0.2,0.2,0.2c0.3,0.1,1,0.1,1.3,0.2c0.1,0.9,0.3,2.5,0.3,4.1v1.8l-5.4-6.3l0,0l0,0
				c-0.1,0-0.2,0-0.3,0c-0.2,0-0.5,0-0.7,0c-0.3,0-0.5,0-0.7,0c-0.1,0-0.3,0-0.4,0c-0.1,0-0.3,0.1-0.3,0.2c0,0.2,0.2,0.2,0.4,0.3
				c0.4,0.1,0.8,0.5,1.3,1c0,3.8-0.1,5.4-0.3,6.9c-0.2,0-0.7,0.1-1,0.2c-0.1,0-0.1,0.1-0.1,0.2c0,0.1,0.1,0.2,0.2,0.2
				c0,0,0.1,0,0.1,0c0.2,0,0.8-0.1,1.4-0.1c0.8,0,1.4,0.1,1.7,0.1c0.1,0,0.1,0,0.1,0c0.1,0,0.2-0.1,0.2-0.2c0-0.1-0.1-0.2-0.2-0.2
				c-0.2-0.1-0.6-0.1-1.3-0.2c-0.2-1.4-0.3-2.9-0.3-6.3l3.9,4.5c0.7,0.8,1.1,1.3,1.4,1.7c0.7,0.8,0.7,0.8,0.8,0.8
				c0.1,0,0.2-0.1,0.2-0.2c0,0,0-0.1,0-0.2c0-0.5-0.1-2-0.1-4.1c0-1.5,0.1-3.2,0.3-4.1c0.5,0,0.9-0.1,1-0.2c0.1,0,0.1-0.1,0.1-0.2
				C71.6,118.2,71.5,118.1,71.4,118.1z"/>
			<path class="st1" d="M85.1,126.6c-0.2-0.1-0.8-0.1-1.1-0.2l-1.6-3.8c-0.6-1.4-1.3-3.4-1.5-4.1c-0.2-0.7-0.3-0.8-0.4-0.8
				c-0.1,0-0.1,0.1-0.2,0.2l0,0c-0.6,1.7-2.4,6.1-3.8,8.5h0c-0.2,0-0.8,0.1-1,0.1c-0.1,0-0.1,0.1-0.1,0.2c0,0.1,0.1,0.2,0.2,0.2
				c0,0,0,0,0.1,0c0.2,0,0.8-0.1,1.5-0.1c0.8,0,1.4,0,1.7,0.1c0.1,0,0.1,0,0.2,0c0.1,0,0.2-0.1,0.2-0.2c0-0.1-0.1-0.2-0.2-0.2
				c-0.3-0.1-1.1-0.1-1.4-0.2c0.1-0.5,0.4-1.5,0.6-2.3h3.1c0.2,0.5,0.5,1.4,0.7,2.1l0.1,0.2c-0.3,0-1,0.1-1.4,0.1
				c-0.1,0-0.1,0.1-0.1,0.2c0,0.1,0.1,0.2,0.2,0.2c0,0,0.1,0,0.2,0c0.3,0,1-0.1,2-0.1c0.9,0,1.5,0,1.8,0.1c0.1,0,0.1,0,0.2,0
				c0.1,0,0.2-0.1,0.2-0.2C85.2,126.7,85.1,126.7,85.1,126.6z M81.2,123.8h-2.7c0.3-0.7,1-2.5,1.4-3.3L81.2,123.8z"/>
			<path class="st1" d="M96.4,117.5c0-0.1-0.1-0.3-0.2-0.3c-0.1,0-0.2,0.1-0.2,0.2c0,0.1-0.1,0.3-0.1,0.4c0,0,0,0,0,0
				c-1,0.2-3.2,0.2-3.7,0.2c-0.6,0-2.7,0-3.7-0.2c0,0,0,0,0,0c0-0.1,0-0.3-0.1-0.4c0-0.1-0.1-0.2-0.2-0.2c-0.2,0-0.2,0.1-0.2,0.3
				c0,0.1,0,0.3,0,0.5c0,0.3,0.1,0.6,0.1,0.8c0,0.3,0,0.7-0.1,0.9c0,0.1,0,0.2,0,0.3c0,0.2,0.1,0.3,0.2,0.3c0.1,0,0.1,0,0.2-0.2
				c0.1-0.2,0.1-0.6,0.2-1c0.6-0.4,1.6-0.6,2.8-0.6c0.1,0.9,0.1,2.7,0.1,3.9c0,1.3,0,3-0.1,3.9c-0.2,0-0.9,0.1-1.2,0.2
				c-0.1,0-0.1,0.1-0.1,0.2c0,0.1,0.1,0.2,0.2,0.2c0,0,0.1,0,0.2,0c0.3,0,0.9-0.1,1.7-0.1c0.8,0,1.4,0,1.7,0.1c0.1,0,0.2,0,0.2,0
				c0.1,0,0.2-0.1,0.2-0.2c0-0.1-0.1-0.2-0.2-0.2c-0.3-0.1-0.9-0.1-1.2-0.2c-0.1-0.9-0.1-2.7-0.1-3.9c0-1.3,0-3,0.1-3.9
				c1.2,0,2.2,0.2,2.8,0.6c0,0.4,0.1,0.8,0.2,1v0c0,0.1,0.1,0.2,0.2,0.2c0.1,0,0.2-0.1,0.2-0.3c0,0,0-0.1,0-0.3
				c0-0.3-0.1-0.7-0.1-0.9c0-0.2,0-0.5,0.1-0.8C96.4,117.8,96.4,117.6,96.4,117.5z"/>
			<path class="st1" d="M105.1,118.5c0.1,0,0.1-0.1,0.1-0.2c0-0.1-0.1-0.2-0.2-0.2c0,0-0.1,0-0.2,0c-0.3,0-0.9,0.1-1.7,0.1
				c-0.8,0-1.4,0-1.7-0.1c-0.1,0-0.2,0-0.2,0c-0.1,0-0.2,0.1-0.2,0.2c0,0.1,0.1,0.2,0.2,0.2c0.3,0.1,0.8,0.1,1.2,0.2
				c0.1,0.9,0.1,2.7,0.1,3.9c0,1.2,0,3-0.1,3.9c-0.2,0-0.9,0.1-1.2,0.2c-0.1,0-0.1,0.1-0.1,0.2c0,0.1,0.1,0.2,0.2,0.2
				c0,0,0.1,0,0.2,0c0.3,0,0.9-0.1,1.7-0.1c0.8,0,1.4,0,1.7,0.1c0.1,0,0.1,0,0.2,0c0.1,0,0.2-0.1,0.2-0.2c0-0.1-0.1-0.2-0.1-0.2l0,0
				c-0.3-0.1-0.9-0.1-1.2-0.2c-0.1-1-0.1-2.7-0.1-3.9c0-1.2,0-3,0.1-3.9C104.4,118.6,104.9,118.5,105.1,118.5z"/>
			<path class="st1" d="M115.1,117.9c-2.8,0-4.9,2-4.9,4.7c0,2.9,1.9,4.6,4.9,4.6c2.6,0,4.7-2,4.7-4.6
				C119.8,119.7,117.9,117.9,115.1,117.9z M115.1,126.8c-2.3,0-3.1-2.3-3.1-4.2c0-2.7,1.2-4.2,3.1-4.2c2.8,0,2.9,3.8,2.9,4.2
				C118,124.7,117.1,126.8,115.1,126.8z"/>
			<path class="st1" d="M134.2,118.1c0,0-0.1,0-0.1,0c-0.2,0-0.7,0.1-1.4,0.1c-0.7,0-1.3,0-1.6-0.1c-0.1,0-0.2,0-0.2,0
				c-0.1,0-0.2,0.1-0.2,0.2c0,0.1,0.1,0.2,0.2,0.2c0.3,0.1,1,0.1,1.3,0.2c0.1,0.9,0.3,2.5,0.3,4.1v1.8l-5.4-6.3l0,0l0,0
				c-0.1,0-0.2,0-0.3,0c-0.2,0-0.5,0-0.7,0c-0.3,0-0.5,0-0.7,0c-0.1,0-0.3,0-0.4,0c-0.1,0-0.3,0.1-0.3,0.2c0,0.2,0.2,0.2,0.4,0.3
				c0.4,0.1,0.8,0.5,1.3,1c0,3.8-0.1,5.4-0.3,6.9c-0.2,0-0.7,0.1-1,0.2c-0.1,0-0.1,0.1-0.1,0.2c0,0.1,0.1,0.2,0.2,0.2
				c0,0,0.1,0,0.1,0c0.2,0,0.8-0.1,1.4-0.1c0.8,0,1.4,0.1,1.7,0.1c0.1,0,0.1,0,0.1,0c0.1,0,0.2-0.1,0.2-0.2c0-0.1-0.1-0.2-0.2-0.2
				c-0.2-0.1-0.6-0.1-1.3-0.2c-0.2-1.4-0.3-2.9-0.3-6.3l3.9,4.5c0.7,0.8,1.1,1.3,1.4,1.7c0.7,0.8,0.7,0.8,0.8,0.8
				c0.1,0,0.2-0.1,0.2-0.2c0,0,0-0.1,0-0.2c0-0.5-0.1-2-0.1-4.1c0-1.5,0.1-3.2,0.3-4.1c0.5,0,0.9-0.1,1-0.2c0.1,0,0.1-0.1,0.1-0.2
				C134.4,118.2,134.3,118.1,134.2,118.1z"/>
			<path class="st1" d="M147.9,126.6c-0.2-0.1-0.8-0.1-1.1-0.2l-1.6-3.8c-0.6-1.4-1.3-3.4-1.5-4.1c-0.2-0.7-0.3-0.8-0.4-0.8
				c-0.1,0-0.1,0.1-0.2,0.2l0,0c-0.6,1.7-2.4,6.1-3.8,8.5h0c-0.2,0-0.8,0.1-1,0.1c-0.1,0-0.1,0.1-0.1,0.2c0,0.1,0.1,0.2,0.2,0.2
				c0,0,0,0,0.1,0c0.2,0,0.8-0.1,1.5-0.1c0.8,0,1.4,0,1.7,0.1c0.1,0,0.1,0,0.2,0c0.1,0,0.2-0.1,0.2-0.2c0-0.1-0.1-0.2-0.2-0.2
				c-0.3-0.1-1.1-0.1-1.4-0.2c0.1-0.5,0.4-1.5,0.6-2.3h3.1c0.2,0.5,0.5,1.4,0.7,2.1l0.1,0.2c-0.3,0-1,0.1-1.4,0.1
				c-0.1,0-0.1,0.1-0.1,0.2c0,0.1,0.1,0.2,0.2,0.2c0,0,0.1,0,0.2,0c0.3,0,1-0.1,2-0.1c0.9,0,1.5,0,1.8,0.1c0.1,0,0.1,0,0.2,0
				c0.1,0,0.2-0.1,0.2-0.2C148.1,126.7,148,126.7,147.9,126.6z M144.1,123.8h-2.7c0.3-0.7,1-2.5,1.4-3.3L144.1,123.8z"/>
			<path class="st1" d="M159.9,126.2c0-0.2,0-0.5,0-0.8c0-0.3,0-0.5,0-0.6c0-0.2-0.1-0.3-0.2-0.3c-0.1,0-0.1,0.1-0.2,0.2
				c-0.1,0.2-0.1,0.8-0.2,1c-0.8,0.4-2.3,0.7-3.3,0.7c-0.2,0-0.4,0-0.5,0c-0.1-1-0.1-2.7-0.1-3.9c0-1.3,0-3,0.1-3.9
				c0.4,0,0.9-0.1,1.2-0.2c0.1,0,0.1-0.1,0.1-0.2c0-0.1-0.1-0.2-0.2-0.2c0,0-0.1,0-0.2,0c-0.3,0-0.9,0.1-1.7,0.1
				c-0.8,0-1.4,0-1.7-0.1c-0.1,0-0.2,0-0.2,0c-0.1,0-0.2,0.1-0.2,0.2c0,0.1,0.1,0.2,0.2,0.2c0.3,0.1,0.8,0.1,1.2,0.2
				c0.1,0.9,0.1,2.7,0.1,3.9c0,1.2,0,3-0.1,3.9c-0.2,0-0.9,0.1-1.2,0.2c-0.1,0-0.1,0.1-0.1,0.2c0,0.1,0.1,0.2,0.2,0.2
				c0,0,0.1,0,0.2,0c0.2,0,0.5,0,0.8,0c0.6,0,1.3,0,2.2,0c1.8,0,2.6,0,3.4,0.2c0,0.1,0,0.2,0.1,0.4c0,0.1,0.1,0.2,0.2,0.2
				c0.2,0,0.2-0.1,0.2-0.3c0-0.1,0-0.2,0-0.4C159.9,126.8,159.9,126.5,159.9,126.2z"/>
		</g>
		<g>
			<path class="st1" d="M35.1,139c0,2.4-1.9,4.5-4.6,4.5c-3.1,0-4.8-1.9-4.8-4.5c0-2.8,2.3-4.6,4.8-4.6
				C33.5,134.5,35.1,136.4,35.1,139z M33.5,139c0-1.6-0.6-4.3-3-4.3c-2.2,0-3.2,1.9-3.2,4.3c0,1.7,0.7,4.3,3.2,4.3
				C32.6,143.3,33.5,141,33.5,139z"/>
			<path class="st1" d="M42.8,139.1c0,1.2,0,3,0.1,3.9c0.2,0,0.9,0.1,1.2,0.2c0,0,0.1,0.1,0.1,0.1c0,0.1-0.1,0.1-0.1,0.1
				c-0.1,0-0.8-0.1-1.9-0.1c-1.1,0-1.8,0.1-1.9,0.1c-0.1,0-0.1-0.1-0.1-0.1c0-0.1,0.1-0.1,0.1-0.1c0.3-0.1,1-0.2,1.2-0.2
				c0.1-0.9,0.1-2.7,0.1-4c0-1.3,0-3.1-0.1-4c-0.2,0-0.9-0.1-1.2-0.2c0,0-0.1-0.1-0.1-0.1c0-0.1,0.1-0.1,0.1-0.1c0.1,0,0.5,0,1,0
				c0.6,0,1.3,0,2.2,0c1.9,0,2.8-0.1,3.7-0.1c0-0.2,0.1-0.4,0.1-0.5c0-0.1,0-0.1,0.1-0.1c0.1,0,0.1,0.1,0.1,0.2
				c0,0.2-0.1,0.7-0.1,1.1c0,0.5,0.1,1,0.1,1.2c0,0.1-0.1,0.2-0.2,0.2c-0.1,0-0.1-0.1-0.1-0.2c-0.1-0.3-0.1-0.7-0.1-0.9
				c-0.8-0.4-2.4-0.6-3.7-0.6c-0.2,0-0.4,0-0.6,0c-0.1,0.9-0.1,2.6-0.1,3.9h0.7c0.8,0,2.6-0.2,3.3-0.5c0-0.2,0.1-0.5,0.2-0.8
				c0-0.1,0.1-0.1,0.1-0.1c0.1,0,0.1,0.1,0.1,0.2c0,0.2-0.1,0.6-0.1,1.2c0,0.7,0.1,1.2,0.1,1.4c0,0.1,0,0.2-0.1,0.2
				c-0.1,0-0.1,0-0.1-0.1c-0.1-0.2-0.2-0.8-0.2-1c-0.6-0.2-2.5-0.3-3.3-0.3H42.8z"/>
			<path class="st1" d="M67.5,139.2c0-1.6-0.2-3.3-0.3-4.1c-0.2,0-1-0.1-1.3-0.2c0,0-0.1-0.1-0.1-0.1c0-0.1,0.1-0.1,0.1-0.1
				c0.1,0,0.8,0.1,1.8,0.1c0.9,0,1.5-0.1,1.5-0.1c0.1,0,0.1,0.1,0.1,0.1c0,0.1-0.1,0.1-0.1,0.1c-0.3,0.1-0.9,0.2-1.1,0.2
				c-0.2,0.9-0.4,2.5-0.4,4.1c0,2.5,0.1,4.2,0.1,4.3c0,0.1,0,0.2-0.1,0.2c-0.1,0-0.1-0.1-2.1-2.5l-4-4.7c0,3.7,0.1,5.2,0.3,6.6
				c0.2,0,1,0.1,1.4,0.2c0,0,0.1,0.1,0.1,0.1c0,0.1-0.1,0.1-0.1,0.1c-0.1,0-0.8-0.1-1.8-0.1c-0.8,0-1.5,0.1-1.6,0.1
				c-0.1,0-0.1-0.1-0.1-0.1c0-0.1,0.1-0.1,0.1-0.1c0.3-0.1,0.9-0.2,1.1-0.2c0.2-1.5,0.4-2.9,0.4-7c-0.5-0.5-0.9-0.9-1.3-1.1
				c-0.2-0.1-0.3-0.1-0.3-0.2c0-0.1,0.1-0.2,0.2-0.2c0.2,0,0.6,0.1,1.1,0.1c0.3,0,0.7-0.1,1-0.1l5.5,6.5V139.2z"/>
			<path class="st1" d="M83.7,139c0,2.4-1.9,4.5-4.6,4.5c-3.1,0-4.8-1.9-4.8-4.5c0-2.8,2.3-4.6,4.8-4.6
				C82.1,134.5,83.7,136.4,83.7,139z M82.1,139c0-1.6-0.6-4.3-3-4.3c-2.2,0-3.2,1.9-3.2,4.3c0,1.7,0.7,4.3,3.2,4.3
				C81.2,143.3,82.1,141,82.1,139z"/>
			<path class="st1" d="M93.4,141.7c0.8-1.9,1.7-4.6,2.1-6.6c-0.2,0-0.9-0.1-1.2-0.2c0,0-0.1-0.1-0.1-0.1c0-0.1,0.1-0.1,0.1-0.1
				c0.1,0,0.8,0.1,1.9,0.1c0.7,0,1.2-0.1,1.2-0.1c0.1,0,0.1,0.1,0.1,0.1c0,0.1-0.1,0.1-0.1,0.1c-0.2,0.1-0.8,0.2-0.9,0.2
				c-0.6,1.2-2.1,5-2.8,6.8c-0.4,0.9-0.6,1.8-0.8,1.8c-0.3,0-0.6-1.1-1-2.1c-0.6-1.3-1.7-4-2.3-5.2c-0.2-0.4-0.4-0.8-0.6-1.2
				c-0.2,0-0.7-0.1-1-0.2c0,0-0.1-0.1-0.1-0.1c0-0.1,0.1-0.1,0.1-0.1c0.1,0,0.8,0.1,1.8,0.1c1.1,0,1.9-0.1,1.9-0.1
				c0.1,0,0.1,0.1,0.1,0.1c0,0.1-0.1,0.1-0.1,0.1c-0.3,0.1-1.1,0.2-1.3,0.2c0.2,0.6,1.1,2.7,1.3,3.2L93.4,141.7z"/>
			<path class="st1" d="M108.2,143c0.2,0,0.9,0.1,1.1,0.2c0,0,0.1,0.1,0.1,0.1c0,0.1-0.1,0.1-0.1,0.1c-0.1,0-0.8-0.1-1.9-0.1
				c-1.2,0-2,0.1-2.2,0.1c-0.1,0-0.1-0.1-0.1-0.1c0-0.1,0.1-0.1,0.1-0.1c0.4-0.1,1.2-0.1,1.5-0.2c-0.2-0.6-0.6-1.8-0.8-2.4h-3.2
				c-0.3,0.8-0.6,1.9-0.7,2.4c0.3,0,1.1,0.1,1.5,0.2c0,0,0.1,0.1,0.1,0.1c0,0.1-0.1,0.1-0.1,0.1c-0.1,0-0.8-0.1-1.9-0.1
				c-0.9,0-1.6,0.1-1.6,0.1c-0.1,0-0.1-0.1-0.1-0.1c0-0.1,0.1-0.1,0.1-0.1c0.3-0.1,0.9-0.1,1.1-0.1c1.5-2.5,3.3-6.9,3.9-8.6
				c0-0.1,0.1-0.2,0.1-0.2c0.1,0,0.1,0.2,0.3,0.8c0.2,0.7,0.9,2.7,1.5,4.1L108.2,143z M105.7,140.4l-1.5-3.6
				c-0.3,0.7-1.2,2.9-1.5,3.6H105.7z"/>
			<path class="st1" d="M120.4,136.7c-0.1-0.2-0.1-0.7-0.2-1c-0.7-0.4-1.7-0.6-3-0.6c-0.1,0.9-0.1,2.7-0.1,4c0,1.3,0,3.1,0.1,4
				c0.2,0,0.9,0.1,1.2,0.2c0,0,0.1,0.1,0.1,0.1c0,0.1-0.1,0.1-0.1,0.1c-0.1,0-0.9-0.1-1.9-0.1c-1.1,0-1.8,0.1-1.9,0.1
				c-0.1,0-0.1-0.1-0.1-0.1c0-0.1,0.1-0.1,0.1-0.1c0.3-0.1,1-0.2,1.2-0.2c0.1-0.9,0.1-2.7,0.1-4c0-1.3,0-3.1-0.1-4
				c-1.3,0-2.3,0.2-3,0.6c0,0.4-0.1,0.8-0.2,1c0,0.1,0,0.1-0.1,0.1c-0.1,0-0.2-0.1-0.2-0.2s0.1-0.8,0.1-1.2c0-0.3-0.1-1.2-0.1-1.3
				c0-0.1,0.1-0.2,0.2-0.2c0.1,0,0.1,0.1,0.1,0.1c0.1,0.2,0.1,0.4,0.1,0.5c0.9,0.2,2.9,0.2,3.7,0.2c0.8,0,2.8,0,3.7-0.2
				c0-0.1,0-0.3,0.1-0.5c0-0.1,0.1-0.1,0.1-0.1c0.1,0,0.2,0.1,0.2,0.2c0,0.2-0.1,1-0.1,1.3c0,0.4,0.1,1.1,0.1,1.2s0,0.2-0.2,0.2
				C120.4,136.8,120.4,136.7,120.4,136.7z"/>
			<path class="st1" d="M134.9,139c0,2.4-1.9,4.5-4.6,4.5c-3.1,0-4.8-1.9-4.8-4.5c0-2.8,2.3-4.6,4.8-4.6
				C133.2,134.5,134.9,136.4,134.9,139z M133.2,139c0-1.6-0.6-4.3-3-4.3c-2.2,0-3.2,1.9-3.2,4.3c0,1.7,0.7,4.3,3.2,4.3
				C132.4,143.3,133.2,141,133.2,139z"/>
		</g>
	</g>
</g>
</svg>
